<?xml version="1.0" standalone="no"?>
<!DOCTYPE svg PUBLIC "-//W3C//DTD SVG 20010904//EN"
 "http://www.w3.org/TR/2001/REC-SVG-20010904/DTD/svg10.dtd">
<svg version="1.0" xmlns="http://www.w3.org/2000/svg"
 width="512.000000pt" height="512.000000pt" viewBox="0 0 512.000000 512.000000"
 preserveAspectRatio="xMidYMid meet">
<metadata>
Created by potrace 1.11, written by Peter Selinger 2001-2013
</metadata>
<g transform="translate(0.000000,512.000000) scale(0.100000,-0.100000)"
fill="#000000" stroke="none">
<path d="M430 5113 c-180 -30 -337 -163 -402 -339 -20 -54 -22 -82 -26 -321
l-4 -263 160 0 c136 0 162 -2 173 -17 12 -13 15 -140 19 -697 l5 -681 749 -3
c545 -1 753 1 762 9 12 9 14 129 14 681 0 442 4 676 10 689 10 18 23 19 198
19 133 0 192 -4 200 -12 9 -9 12 -382 12 -1619 0 -1482 -1 -1608 -17 -1620
-18 -16 -253 -26 -329 -14 -80 12 -74 -50 -74 768 0 403 -4 738 -8 745 -7 10
-166 12 -763 10 l-754 -3 -5 -742 c-5 -695 -6 -743 -23 -760 -15 -15 -40 -19
-173 -22 l-156 -3 4 -257 c4 -232 6 -261 26 -315 62 -167 213 -300 380 -335
38 -8 659 -11 2155 -11 2296 0 2151 -4 2275 56 64 32 159 118 201 183 68 105
74 139 79 423 l4 258 -971 2 c-851 3 -973 5 -981 18 -15 24 -13 3223 2 3238 8
8 66 12 194 12 153 0 185 -3 198 -16 14 -14 16 -160 16 -1464 0 -1311 1 -1448
16 -1454 9 -3 355 -6 770 -6 l754 0 -2 1733 -3 1732 -23 59 c-30 81 -73 144
-135 203 -63 59 -106 86 -183 116 l-59 22 -2130 1 c-1172 1 -2141 -1 -2155 -3z"/>
</g>
</svg>
